<svg width="1442" height="712" viewBox="0 0 1442 712" fill="none" xmlns="http://www.w3.org/2000/svg">
    <mask id="mask0_1605_49" style="mask-type:luminance" maskUnits="userSpaceOnUse" x="396" y="0" width="1046"
        height="453">
        <path d="M1442 0H396V453H1442V0Z" fill="white" />
    </mask>
    <g mask="url(#mask0_1605_49)">
        <mask id="mask1_1605_49" style="mask-type:luminance" maskUnits="userSpaceOnUse" x="396" y="0" width="1046"
            height="453">
            <path d="M1442 0H396V453H1442V0Z" fill="white" />
        </mask>
        <g mask="url(#mask1_1605_49)">
            <path
                d="M1217.51 46.4153C1198.29 35.1757 1169.65 24.4504 1144.93 16.3343C1131.78 12.0149 1119.81 8.45183 1110.86 5.89502L999.292 198.061C1008.21 200.615 1020.02 204.134 1033 208.395C1056.91 216.248 1084.47 226.495 1103.86 237.45C1104.56 237.842 1105.24 238.234 1105.91 238.627C1107.92 239.805 1109.84 240.993 1111.64 242.184C1138.86 260.177 1158.55 287.241 1178.42 313.805C1198.29 340.371 1218.35 366.433 1246.17 382.624C1262.3 392.013 1289.78 398.981 1313.16 403.535C1319.37 404.745 1325.25 405.776 1330.6 406.655L1442.14 214.551C1436.95 213.694 1431.27 212.69 1425.31 211.529C1401.86 206.96 1374.33 200.046 1357.77 190.41C1329.55 173.989 1309.37 147.695 1289.49 121.12C1269.61 94.5421 1250.02 67.6754 1223.16 49.9186C1221.39 48.7472 1219.5 47.5793 1217.51 46.4165V46.4153Z"
                fill="black" />
            <path
                d="M1214.95 50.8201C1206.36 45.7979 1195.89 40.8816 1184.73 36.2517L1169.14 63.1132C1180.29 67.743 1190.77 72.6596 1199.36 77.6817C1199.87 77.9815 1200.36 78.2828 1200.86 78.5831L1216.45 51.7216C1215.95 51.4211 1215.46 51.1199 1214.95 50.8201ZM1247.02 69.5192C1248.03 70.5182 1249.04 71.529 1250.03 72.5509C1249.03 71.529 1248.03 70.5182 1247.02 69.5192ZM1136.77 13.704C1135.77 13.3852 1134.81 13.0857 1133.82 12.7773C1134.8 13.0849 1135.77 13.3859 1136.77 13.704ZM1250.66 80.2884L1235.06 107.15C1243.51 116.179 1251.35 125.971 1259.01 136.001L1274.61 109.14C1266.95 99.1093 1259.1 89.3179 1250.66 80.2884ZM1127.61 10.8534C1126.87 10.6294 1126.15 10.4053 1125.43 10.1882C1126.14 10.4037 1126.88 10.6311 1127.61 10.8534ZM1142.85 20.8971C1142.7 20.8452 1142.53 20.7902 1142.38 20.7385C1129.22 16.4191 1117.25 12.8561 1108.31 10.2992L1092.71 37.1608C1101.66 39.7175 1113.63 43.2807 1126.78 47.6C1126.94 47.6519 1127.1 47.7069 1127.26 47.7588L1142.85 20.8971ZM1280.23 108.769C1281.47 110.421 1282.72 112.079 1283.96 113.737C1282.72 112.078 1281.47 110.421 1280.23 108.769ZM1202 85.3003L1186.4 112.162C1186.55 112.257 1186.71 112.353 1186.85 112.448C1196.68 118.942 1205.52 126.657 1213.77 135.127L1229.37 108.266C1221.12 99.7953 1212.27 92.0801 1202.45 85.5868C1202.3 85.4912 1202.15 85.3957 1202 85.3003ZM1303.42 146.993L1287.82 173.854C1295.61 183.564 1303.74 192.866 1312.63 201.231L1328.22 174.37C1319.33 166.004 1311.21 156.702 1303.42 146.993ZM1162.5 65.8449C1151.46 61.3961 1139.9 57.2448 1128.93 53.5647L1113.33 80.4263C1124.31 84.1063 1135.87 88.2576 1146.9 92.7065L1162.5 65.8449ZM1398.68 210.606C1386.41 207.522 1374.38 203.823 1364.45 199.455L1348.86 226.315C1358.78 230.685 1370.82 234.384 1383.08 237.468L1398.68 210.606ZM1259.31 144.167L1243.71 171.028C1246.88 175.218 1250.03 179.435 1253.18 183.647C1257.66 189.634 1262.15 195.6 1266.75 201.448L1282.35 174.587C1277.75 168.738 1273.25 162.773 1268.77 156.786C1265.62 152.573 1262.48 148.356 1259.31 144.167ZM1421.42 250.219C1416.24 249.362 1410.56 248.358 1404.6 247.197C1398.24 245.96 1391.59 244.544 1384.94 242.954L1369.34 269.816C1376 271.406 1382.65 272.822 1389 274.059C1394.96 275.22 1400.65 276.224 1405.83 277.081L1421.42 250.219ZM1178.64 113.349C1170.06 108.327 1159.58 103.411 1148.42 98.7806L1132.83 125.642C1143.99 130.272 1154.46 135.189 1163.05 140.211C1163.56 140.51 1164.05 140.812 1164.55 141.112L1180.14 114.251C1179.64 113.95 1179.16 113.649 1178.64 113.349ZM1214.35 142.818L1198.75 169.679C1207.2 178.709 1215.04 188.501 1222.7 198.531L1238.3 171.669C1230.64 161.639 1222.8 151.847 1214.35 142.818ZM1106.55 83.428C1106.39 83.3761 1106.23 83.3209 1106.07 83.2692C1092.92 78.9499 1080.95 75.3869 1072 72.83L1056.41 99.6917C1065.35 102.248 1077.32 105.812 1090.48 110.131C1090.63 110.183 1090.8 110.238 1090.95 110.29L1106.55 83.428ZM1313.37 208.659L1297.77 235.519C1305.07 242.056 1312.89 247.957 1321.46 252.942C1323.11 253.903 1324.88 254.835 1326.73 255.742L1342.33 228.88C1340.47 227.973 1338.71 227.041 1337.06 226.08C1328.49 221.095 1320.67 215.196 1313.37 208.659ZM1165.7 147.831L1150.1 174.693C1150.25 174.788 1150.4 174.884 1150.55 174.979C1160.37 181.473 1169.22 189.189 1177.47 197.658L1193.06 170.796C1184.81 162.326 1175.97 154.611 1166.14 148.118C1166 148.022 1165.84 147.927 1165.7 147.831ZM1267.11 209.523L1251.52 236.385C1259.31 246.094 1267.43 255.396 1276.32 263.763L1291.92 236.901C1283.03 228.535 1274.9 219.234 1267.11 209.523ZM1126.2 128.376C1115.16 123.927 1103.6 119.776 1092.63 116.096L1077.03 142.957C1088 146.637 1099.56 150.788 1110.6 155.237L1126.2 128.376ZM1362.37 273.138C1350.11 270.054 1338.07 266.353 1328.15 261.984L1312.55 288.847C1322.48 293.215 1334.51 296.914 1346.78 299.998L1362.37 273.138ZM1223.01 206.697L1207.41 233.56C1210.58 237.749 1213.72 241.966 1216.87 246.179C1221.35 252.166 1225.85 258.131 1230.45 263.978L1246.04 237.118C1241.45 231.269 1236.95 225.304 1232.47 219.316C1229.32 215.104 1226.17 210.886 1223.01 206.697ZM1385.12 312.75C1379.94 311.894 1374.25 310.889 1368.29 309.727C1361.94 308.489 1355.29 307.074 1348.63 305.484L1333.04 332.346C1339.69 333.936 1346.35 335.352 1352.7 336.589C1358.66 337.752 1364.34 338.754 1369.52 339.611L1385.12 312.75ZM1142.34 175.88C1133.75 170.858 1123.28 165.941 1112.12 161.311L1096.52 188.174C1107.68 192.803 1118.16 197.719 1126.75 202.742C1127.26 203.042 1127.74 203.342 1128.24 203.644L1143.84 176.781C1143.34 176.481 1142.85 176.18 1142.34 175.88ZM1178.04 205.348L1162.45 232.21C1170.9 241.239 1178.74 251.031 1186.4 261.061L1202 234.201C1194.34 224.17 1186.49 214.378 1178.04 205.348ZM1070.24 145.959C1070.09 145.907 1069.93 145.852 1069.77 145.8C1056.61 141.481 1044.64 137.918 1035.7 135.361L1020.1 162.222C1029.05 164.779 1041.02 168.342 1054.17 172.662C1054.33 172.713 1054.49 172.768 1054.65 172.82L1070.24 145.959ZM1277.06 271.189L1261.46 298.051C1268.77 304.588 1276.59 310.487 1285.16 315.472C1286.81 316.433 1288.57 317.365 1290.43 318.272L1306.02 291.41C1304.17 290.503 1302.4 289.571 1300.75 288.61C1292.18 283.625 1284.36 277.726 1277.06 271.189ZM1129.39 210.362L1113.8 237.224C1113.94 237.319 1114.1 237.414 1114.24 237.51C1124.07 244.003 1132.91 251.719 1141.16 260.188L1156.76 233.328C1148.51 224.856 1139.66 217.141 1129.84 210.647C1129.69 210.552 1129.54 210.457 1129.39 210.362ZM1230.81 272.055L1215.21 298.915C1223 308.626 1231.13 317.927 1240.02 326.293L1255.62 299.432C1246.72 291.065 1238.6 281.764 1230.81 272.055ZM1089.89 190.906C1078.85 186.458 1067.29 182.307 1056.32 178.626L1040.73 205.488C1051.7 209.167 1063.26 213.319 1074.3 217.768L1089.89 190.906ZM1326.07 335.668C1313.8 332.584 1301.77 328.885 1291.84 324.516L1276.25 351.377C1286.17 355.745 1298.21 359.446 1310.47 362.53L1326.07 335.668ZM1186.7 269.227L1171.11 296.089C1174.27 300.278 1177.42 304.496 1180.57 308.709C1185.05 314.696 1189.55 320.661 1194.14 326.51L1209.74 299.648C1205.14 293.799 1200.64 287.834 1196.16 281.846C1193.01 277.634 1189.87 273.418 1186.7 269.227ZM1348.81 375.28C1343.63 374.423 1337.95 373.419 1331.99 372.259C1325.64 371.021 1318.98 369.606 1312.33 368.016L1296.74 394.876C1303.39 396.466 1310.04 397.882 1316.39 399.121C1322.35 400.281 1328.04 401.286 1333.22 402.142L1348.81 375.28ZM1106.04 238.41C1097.45 233.389 1086.97 228.472 1075.81 223.841L1075.7 224.039C1085.95 228.298 1095.64 232.81 1103.86 237.452C1104.56 237.844 1105.24 238.235 1105.91 238.629C1106.42 238.929 1106.91 239.23 1107.41 239.53L1107.53 239.311C1107.04 239.011 1106.55 238.71 1106.04 238.41ZM1111.24 241.627L1111.11 241.846C1111.28 241.959 1111.47 242.072 1111.64 242.187C1121.46 248.676 1130.29 256.349 1138.51 264.749L1138.6 264.591C1130.36 256.121 1121.51 248.406 1111.68 241.912C1111.54 241.817 1111.38 241.722 1111.24 241.627ZM1071.74 222.173C1060.7 217.723 1049.14 213.572 1038.17 209.891L1038.06 210.082C1049.04 213.768 1060.58 217.915 1071.62 222.372L1071.74 222.173ZM1141.74 267.878L1141.66 268.022C1150.14 277.05 1157.99 286.828 1165.64 296.822L1165.69 296.731C1158.03 286.7 1150.19 276.908 1141.74 267.878ZM1033.94 208.49C1033.78 208.438 1033.62 208.382 1033.46 208.33C1020.31 204.012 1008.34 200.448 999.393 197.892L999.292 198.064C1008.21 200.619 1020.02 204.136 1033 208.398C1033.27 208.488 1033.55 208.583 1033.83 208.675L1033.94 208.488V208.49ZM1240.76 333.719L1225.16 360.581C1232.46 367.118 1240.29 373.017 1248.85 378.002C1250.5 378.963 1252.27 379.895 1254.12 380.802L1269.72 353.942C1267.86 353.035 1266.1 352.102 1264.45 351.141C1255.88 346.157 1248.06 340.257 1240.76 333.719ZM1168.55 300.496L1168.5 300.586C1171.82 304.978 1175.12 309.398 1178.42 313.808C1182.76 319.603 1187.1 325.366 1191.54 331.015L1191.59 330.917C1186.99 325.068 1182.5 319.102 1178.02 313.115C1174.87 308.903 1171.72 304.687 1168.55 300.496ZM1330.67 406.549C1325.48 405.692 1319.8 404.688 1313.84 403.527C1307.49 402.29 1300.84 400.873 1294.18 399.285L1294.1 399.428C1300.55 400.964 1307 402.338 1313.16 403.538C1319.37 404.749 1325.25 405.78 1330.6 406.658L1330.67 406.549ZM1194.5 334.585L1194.44 334.692C1202.24 344.445 1210.36 353.766 1219.21 362.135L1219.31 361.962C1210.42 353.597 1202.29 344.296 1194.5 334.585ZM1289.76 398.2C1277.5 395.115 1265.46 391.417 1255.54 387.046L1255.42 387.251C1265.29 391.566 1277.37 395.263 1289.68 398.349L1289.76 398.2ZM1222.6 364.982L1222.49 365.167C1229.8 371.736 1237.61 377.648 1246.16 382.625C1247.81 383.581 1249.57 384.512 1251.44 385.419L1251.56 385.205C1249.71 384.298 1247.94 383.366 1246.29 382.405C1237.72 377.42 1229.9 371.521 1222.6 364.982Z"
                fill="white" />
            <path d="M1438.87 214.978L1441.38 216.441L1331.81 405.162L1329.3 403.702L1438.87 214.978Z" fill="black" />
            <path d="M1110.08 0L1118.88 5.11589L858.843 453L850.041 447.884L1110.08 0Z" fill="black" />
            <path
                d="M620.631 46.4153C639.851 35.1757 668.489 24.4504 693.205 16.3343C706.357 12.0149 718.328 8.45183 727.275 5.89502L838.846 198.061C829.923 200.615 818.118 204.134 805.141 208.395C781.227 216.248 753.671 226.495 734.272 237.45C733.581 237.842 732.898 238.234 732.227 238.627C730.212 239.805 728.295 240.993 726.492 242.184C699.272 260.177 679.589 287.241 659.717 313.805C639.845 340.371 619.789 366.433 591.968 382.624C575.833 392.013 548.357 398.981 524.977 403.535C518.765 404.745 512.885 405.776 507.535 406.655L396 214.551C401.181 213.694 406.863 212.69 412.823 211.529C436.279 206.96 463.812 200.046 480.37 190.41C508.585 173.989 528.769 147.695 548.646 121.12C568.527 94.5421 588.114 67.6754 614.977 49.9186C616.749 48.7472 618.636 47.5793 620.625 46.4165L620.631 46.4153Z"
                fill="black" />
            <path
                d="M631.637 40.5198C632.31 40.1851 632.996 39.8517 633.682 39.5189C632.994 39.8517 632.31 40.1851 631.637 40.5198ZM643.452 35.0114C644.468 34.5635 645.488 34.1168 646.522 33.6735C645.49 34.1166 644.468 34.5637 643.452 35.0114ZM623.184 50.8201C631.773 45.7979 642.246 40.8816 653.404 36.2517L669.001 63.1132C657.843 67.743 647.368 72.6596 638.781 77.6817C638.267 77.9815 637.78 78.2828 637.281 78.5831L621.686 51.7216C622.185 51.4211 622.672 51.1199 623.184 50.8201ZM591.119 69.5192C590.107 70.5182 589.101 71.529 588.107 72.5509C589.103 71.529 590.107 70.5182 591.119 69.5192ZM693.202 16.3361C695.397 15.615 697.545 14.9225 699.665 14.2447C697.545 14.9224 695.396 15.6151 693.202 16.3361ZM701.364 13.704C702.369 13.3852 703.331 13.0857 704.315 12.7773C703.335 13.0849 702.365 13.3859 701.364 13.704ZM587.48 80.2884L603.075 107.15C594.628 116.179 586.785 125.971 579.126 136.001L563.53 109.14C571.19 99.1093 579.032 89.3179 587.48 80.2884ZM710.527 10.8534C711.262 10.6294 711.989 10.4053 712.705 10.1882C711.994 10.4037 711.254 10.6311 710.527 10.8534ZM695.282 20.8971C695.44 20.8452 695.602 20.7902 695.76 20.7385C708.911 16.4191 720.883 12.8561 729.83 10.2992L745.427 37.1608C736.48 39.7175 724.508 43.2807 711.355 47.6C711.197 47.6519 711.035 47.7069 710.877 47.7588L695.282 20.8971ZM557.911 108.769C556.663 110.421 555.419 112.079 554.175 113.737C555.418 112.078 556.663 110.421 557.911 108.769ZM636.138 85.3003L651.733 112.162C651.587 112.257 651.429 112.353 651.286 112.448C641.461 118.942 632.613 126.657 624.365 135.127L608.77 108.266C617.018 99.7953 625.866 92.0801 635.691 85.5868C635.834 85.4912 635.99 85.3957 636.138 85.3003ZM534.718 146.993L550.314 173.854C542.527 183.564 534.4 192.866 525.509 201.231L509.913 174.37C518.804 166.004 526.931 156.702 534.718 146.993ZM675.637 65.8449C686.675 61.3961 698.234 57.2448 709.208 53.5647L724.803 80.4263C713.829 84.1063 702.272 88.2576 691.232 92.7065L675.637 65.8449ZM439.46 210.606C451.725 207.522 463.76 203.823 473.686 199.455L489.281 226.315C479.356 230.685 467.321 234.384 455.056 237.468L439.46 210.606ZM578.828 144.167L594.423 171.028C591.256 175.218 588.11 179.435 584.959 183.647C580.481 189.634 575.982 195.6 571.385 201.448L555.789 174.587C560.386 168.738 564.885 162.773 569.364 156.786C572.515 152.573 575.661 148.356 578.828 144.167ZM416.715 250.219C421.896 249.362 427.578 248.358 433.538 247.197C439.892 245.96 446.544 244.544 453.197 242.954L468.793 269.816C462.14 271.406 455.488 272.822 449.134 274.059C443.174 275.22 437.491 276.224 432.31 277.081L416.715 250.219ZM659.492 113.349C668.08 108.327 678.554 103.411 689.713 98.7806L705.308 125.642C694.15 130.272 683.677 135.189 675.088 140.211C674.574 140.51 674.089 140.812 673.59 141.112L657.993 114.251C658.492 113.95 658.979 113.649 659.492 113.349ZM623.787 142.818L639.384 169.679C630.935 178.709 623.092 188.501 615.433 198.531L599.838 171.669C607.497 161.639 615.339 151.847 623.787 142.818ZM731.588 83.428C731.746 83.3761 731.907 83.3209 732.065 83.2692C745.217 78.9499 757.189 75.3869 766.135 72.83L781.73 99.6917C772.785 102.248 760.814 105.812 747.66 110.131C747.502 110.183 747.341 110.238 747.183 110.29L731.588 83.428ZM524.771 208.659L540.367 235.519C533.065 242.056 525.243 247.957 516.676 252.942C515.025 253.903 513.261 254.835 511.406 255.742L495.811 228.88C497.665 227.973 499.43 227.041 501.081 226.08C509.647 221.095 517.469 215.196 524.771 208.659ZM672.441 147.831L688.038 174.693C687.891 174.788 687.734 174.884 687.589 174.979C677.766 181.473 668.918 189.189 660.67 197.658L645.075 170.796C653.322 162.326 662.169 154.611 671.994 148.118C672.139 148.022 672.296 147.927 672.441 147.831ZM571.023 209.523L586.618 236.385C578.831 246.094 570.704 255.396 561.813 263.763L546.217 236.901C555.108 228.535 563.235 219.234 571.023 209.523ZM711.94 128.376C722.98 123.927 734.538 119.776 745.511 116.096L761.106 142.957C750.134 146.637 738.575 150.788 727.535 155.237L711.94 128.376ZM475.764 273.138C488.029 270.054 500.064 266.353 509.99 261.984L525.586 288.847C515.66 293.215 503.625 296.914 491.36 299.998L475.764 273.138ZM615.131 206.697L630.728 233.56C627.561 237.749 624.415 241.966 621.264 246.179C616.785 252.166 612.285 258.131 607.689 263.978L592.092 237.118C596.69 231.269 601.19 225.304 605.668 219.316C608.819 215.104 611.966 210.886 615.131 206.697ZM453.019 312.75C458.2 311.894 463.882 310.889 469.842 309.727C476.196 308.489 482.849 307.074 489.501 305.484L505.097 332.346C498.444 333.936 491.792 335.352 485.438 336.589C479.478 337.752 473.795 338.754 468.615 339.611L453.019 312.75ZM695.796 175.88C704.385 170.858 714.858 165.941 726.016 161.311L741.613 188.174C730.455 192.803 719.98 197.719 711.393 202.742C710.879 203.042 710.393 203.342 709.894 203.644L694.299 176.781C694.798 176.481 695.284 176.18 695.796 175.88ZM660.092 205.348L675.687 232.21C667.24 241.239 659.397 251.031 651.738 261.061L636.141 234.201C643.801 224.17 651.643 214.378 660.092 205.348ZM767.893 145.959C768.049 145.907 768.211 145.852 768.369 145.8C781.522 141.481 793.494 137.918 802.44 135.361L818.035 162.222C809.089 164.779 797.117 168.342 783.965 172.662C783.807 172.713 783.646 172.768 783.488 172.82L767.893 145.959ZM561.075 271.189L576.672 298.051C569.369 304.588 561.547 310.487 552.981 315.472C551.329 316.433 549.565 317.365 547.711 318.272L532.115 291.41C533.97 290.503 535.734 289.571 537.385 288.61C545.951 283.625 553.773 277.726 561.075 271.189ZM708.746 210.362L724.341 237.224C724.196 237.319 724.038 237.414 723.894 237.51C714.07 244.003 705.222 251.719 696.974 260.188L681.379 233.328C689.627 224.856 698.475 217.141 708.299 210.647C708.443 210.552 708.599 210.457 708.746 210.362ZM607.327 272.055L622.923 298.915C615.135 308.626 607.009 317.927 598.118 326.293L582.521 299.432C591.412 291.065 599.54 281.764 607.327 272.055ZM748.244 190.906C759.284 186.458 770.843 182.307 781.816 178.626L797.411 205.488C786.438 209.167 774.881 213.319 763.841 217.768L748.244 190.906ZM512.068 335.668C524.333 332.584 536.369 328.885 546.294 324.516L561.89 351.377C551.964 355.745 539.929 359.446 527.664 362.53L512.068 335.668ZM651.436 269.227L667.031 296.089C663.864 300.278 660.719 304.496 657.568 308.709C653.09 314.696 648.591 320.661 643.993 326.51L628.398 299.648C632.996 293.799 637.493 287.834 641.973 281.846C645.124 277.634 648.269 273.418 651.436 269.227ZM489.323 375.28C494.504 374.423 500.187 373.419 506.147 372.259C512.501 371.021 519.153 369.606 525.806 368.016L541.401 394.876C534.748 396.466 528.096 397.882 521.742 399.121C515.782 400.281 510.1 401.286 504.919 402.142L489.323 375.28ZM732.101 238.41C740.689 233.389 751.163 228.472 762.322 223.841L762.437 224.039C752.185 228.298 742.493 232.81 734.274 237.452C733.581 237.844 732.898 238.235 732.227 238.629C731.715 238.929 731.229 239.23 730.729 239.53L730.602 239.311C731.101 239.011 731.588 238.71 732.101 238.41ZM726.9 241.627L727.027 241.846C726.853 241.959 726.666 242.072 726.494 242.187C716.677 248.676 707.843 256.349 699.626 264.749L699.534 264.591C707.78 256.121 716.628 248.406 726.453 241.912C726.598 241.817 726.754 241.722 726.9 241.627ZM766.397 222.173C777.436 217.723 788.994 213.572 799.968 209.891L800.078 210.082C789.099 213.768 777.556 217.915 766.512 222.372L766.397 222.173ZM696.396 267.878L696.48 268.022C687.993 277.05 680.143 286.828 672.5 296.822L672.446 296.731C680.106 286.7 687.948 276.908 696.396 267.878ZM804.196 208.49C804.354 208.438 804.516 208.382 804.674 208.33C817.825 204.012 829.797 200.448 838.744 197.892L838.844 198.064C829.923 200.619 818.118 204.136 805.141 208.398C804.864 208.488 804.582 208.583 804.304 208.675L804.196 208.488V208.49ZM597.38 333.719L612.975 360.581C605.673 367.118 597.85 373.017 589.284 378.002C587.634 378.963 585.869 379.895 584.015 380.802L568.419 353.942C570.274 353.035 572.038 352.102 573.689 351.141C582.255 346.157 590.078 340.257 597.38 333.719ZM669.583 300.496L669.635 300.586C666.312 304.978 663.015 309.398 659.717 313.808C655.381 319.603 651.032 325.366 646.601 331.015L646.544 330.917C651.142 325.068 655.641 319.102 660.119 313.115C663.27 308.903 666.417 304.687 669.583 300.496ZM507.471 406.549C512.652 405.692 518.334 404.688 524.294 403.527C530.648 402.29 537.3 400.873 543.953 399.285L544.037 399.428C537.588 400.964 531.14 402.338 524.977 403.538C518.765 404.749 512.885 405.78 507.534 406.658L507.471 406.549ZM643.632 334.585L643.695 334.692C635.895 344.445 627.778 353.766 618.927 362.135L618.826 361.962C627.717 353.597 635.843 344.296 643.632 334.585ZM548.373 398.2C560.638 395.115 572.673 391.417 582.598 387.046L582.718 387.251C572.846 391.566 560.77 395.263 548.459 398.349L548.373 398.2ZM615.535 364.982L615.643 365.167C608.339 371.736 600.524 377.648 591.972 382.625C590.329 383.581 588.563 384.512 586.699 385.419L586.575 385.205C588.43 384.298 590.195 383.366 591.846 382.405C600.412 377.42 608.235 371.521 615.535 364.982Z"
                fill="white" />
            <path d="M399.267 214.978L396.752 216.441L506.323 405.162L508.838 403.702L399.267 214.978Z" fill="black" />
            <path d="M728.058 0L719.255 5.11589L979.293 453L988.096 447.884L728.058 0Z" fill="black" />
        </g>
    </g>
    <path
        d="M744.525 678.2C741.025 678.2 738 676.425 735.45 672.875C732.9 669.325 731.625 663.9 731.625 656.6C731.625 649.55 733.125 643.875 736.125 639.575C739.175 635.275 743.725 631.55 749.775 628.4C751.675 627.4 753.275 626.5 754.575 625.7C755.875 624.9 756.675 624.15 756.975 623.45V614.45C756.975 612.4 756.725 610.65 756.225 609.2C755.775 607.7 754.625 606.95 752.775 606.95C751.075 606.95 749.925 607.75 749.325 609.35C748.725 610.9 748.425 612.85 748.425 615.2V619.1H733.275V615.65C733.275 611.15 734.15 607.275 735.9 604.025C737.7 600.725 740.125 598.2 743.175 596.45C746.275 594.65 749.775 593.75 753.675 593.75C757.425 593.75 760.675 594.625 763.425 596.375C766.175 598.075 768.3 600.45 769.8 603.5C771.35 606.5 772.125 609.95 772.125 613.85V662.75C772.125 666.4 772.225 669.25 772.425 671.3C772.625 673.3 772.875 675.2 773.175 677H758.325C757.675 676.2 757.275 675.025 757.125 673.475C757.025 671.925 756.975 670.9 756.975 670.4H755.925C754.675 672.7 753.075 674.575 751.125 676.025C749.225 677.475 747.025 678.2 744.525 678.2ZM750.675 663.35C752.425 663.35 753.9 662.75 755.1 661.55C756.35 660.35 756.975 659.05 756.975 657.65V638.15C753.325 639.7 750.65 642.05 748.95 645.2C747.3 648.3 746.475 651.8 746.475 655.7C746.475 657.4 746.8 659.1 747.45 660.8C748.1 662.5 749.175 663.35 750.675 663.35ZM792.05 678.2C789.55 678.2 787.45 677.4 785.75 675.8C784.05 674.2 782.775 672.175 781.925 669.725C781.075 667.225 780.65 664.7 780.65 662.15V594.95H795.8V659.15C795.8 660.7 796.075 661.825 796.625 662.525C797.225 663.175 798.15 663.5 799.4 663.5C800.5 663.5 801.425 663.125 802.175 662.375C802.975 661.575 803.7 660.65 804.35 659.6V594.95H819.5V677H804.35V670.1C802.55 671.8 800.525 673.575 798.275 675.425C796.025 677.275 793.95 678.2 792.05 678.2ZM848.257 678.2C843.507 678.2 839.882 677.15 837.382 675.05C834.882 672.95 833.157 669.95 832.207 666.05C831.307 662.15 830.857 657.5 830.857 652.1V608.6H823.207V594.95H830.857V574.7H846.007V594.95H856.432V608.6H846.007V654.275C846.007 657.475 846.482 659.85 847.432 661.4C848.382 662.9 849.932 663.65 852.082 663.65C853.032 663.65 853.857 663.575 854.557 663.425C855.307 663.275 855.907 663.1 856.357 662.9V676.775C855.357 677.175 854.257 677.5 853.057 677.75C851.907 678.05 850.307 678.2 848.257 678.2ZM879.599 678.05C873.549 678.05 868.799 676.025 865.349 671.975C861.899 667.875 860.174 662.7 860.174 656.45V615.35C860.174 609.1 861.899 603.95 865.349 599.9C868.799 595.8 873.549 593.75 879.599 593.75C885.599 593.75 890.324 595.8 893.774 599.9C897.274 603.95 899.024 609.1 899.024 615.35V656.45C899.024 662.7 897.274 667.875 893.774 671.975C890.324 676.025 885.599 678.05 879.599 678.05ZM879.599 664.85C881.549 664.85 882.899 664.075 883.649 662.525C884.399 660.925 884.774 658.9 884.774 656.45V615.35C884.774 612.85 884.399 610.825 883.649 609.275C882.899 607.725 881.549 606.95 879.599 606.95C877.649 606.95 876.299 607.725 875.549 609.275C874.799 610.825 874.424 612.85 874.424 615.35V656.45C874.424 658.95 874.799 660.975 875.549 662.525C876.299 664.075 877.649 664.85 879.599 664.85ZM925.398 678.2C921.848 678.2 918.748 677.6 916.098 676.4C913.448 675.2 911.248 673.5 909.498 671.3C907.748 669.05 906.423 666.4 905.523 663.35C904.673 660.3 904.248 656.9 904.248 653.15H918.348C918.348 656.5 918.873 659.425 919.923 661.925C921.023 664.375 922.848 665.6 925.398 665.6C927.598 665.6 929.023 664.675 929.673 662.825C930.323 660.975 930.648 658.85 930.648 656.45C930.648 653.65 929.548 650.8 927.348 647.9C925.198 644.95 922.948 642.325 920.598 640.025C916.548 636.025 913.173 632.075 910.473 628.175C907.823 624.275 906.498 619.7 906.498 614.45C906.498 608.25 908.123 603.25 911.373 599.45C914.623 595.65 919.248 593.75 925.248 593.75C928.848 593.75 931.873 594.225 934.323 595.175C936.823 596.125 938.823 597.55 940.323 599.45C941.823 601.35 942.898 603.675 943.548 606.425C944.248 609.175 944.598 612.35 944.598 615.95H930.498C930.498 613.35 930.223 611.1 929.673 609.2C929.123 607.3 927.748 606.35 925.548 606.35C923.748 606.35 922.473 607.125 921.723 608.675C920.973 610.175 920.598 612.1 920.598 614.45C920.598 617.2 921.248 619.65 922.548 621.8C923.898 623.9 926.123 626.475 929.223 629.525C933.123 633.325 936.673 637.375 939.873 641.675C943.123 645.975 944.748 650.65 944.748 655.7C944.748 659 944.298 662.025 943.398 664.775C942.548 667.525 941.273 669.9 939.573 671.9C937.923 673.9 935.898 675.45 933.498 676.55C931.148 677.65 928.448 678.2 925.398 678.2ZM916.623 584.825L906.273 571.325H920.073L924.573 578.075L929.223 571.325H943.023L932.673 584.825H916.623ZM950.719 677V566.75H965.869V616.4V619.1H966.619L967.519 616.4L974.869 594.95H989.269L977.569 621.65L991.369 677H976.069L968.569 643.85L968.419 642.65H968.269L965.869 648.65V677H950.719ZM1014.22 678.05C1008.17 678.05 1003.42 676.025 999.968 671.975C996.518 667.875 994.793 662.7 994.793 656.45V615.35C994.793 609.1 996.518 603.95 999.968 599.9C1003.42 595.8 1008.17 593.75 1014.22 593.75C1020.22 593.75 1024.94 595.8 1028.39 599.9C1031.89 603.95 1033.64 609.1 1033.64 615.35V656.45C1033.64 662.7 1031.89 667.875 1028.39 671.975C1024.94 676.025 1020.22 678.05 1014.22 678.05ZM1014.22 664.85C1016.17 664.85 1017.52 664.075 1018.27 662.525C1019.02 660.925 1019.39 658.9 1019.39 656.45V615.35C1019.39 612.85 1019.02 610.825 1018.27 609.275C1017.52 607.725 1016.17 606.95 1014.22 606.95C1012.27 606.95 1010.92 607.725 1010.17 609.275C1009.42 610.825 1009.04 612.85 1009.04 615.35V656.45C1009.04 658.95 1009.42 660.975 1010.17 662.525C1010.92 664.075 1012.27 664.85 1014.22 664.85ZM1041.12 677V566.75H1056.27V677H1041.12ZM1076.31 678.2C1072.81 678.2 1069.79 676.425 1067.24 672.875C1064.69 669.325 1063.41 663.9 1063.41 656.6C1063.41 649.55 1064.91 643.875 1067.91 639.575C1070.96 635.275 1075.51 631.55 1081.56 628.4C1083.46 627.4 1085.06 626.5 1086.36 625.7C1087.66 624.9 1088.46 624.15 1088.76 623.45V614.45C1088.76 612.4 1088.51 610.65 1088.01 609.2C1087.56 607.7 1086.41 606.95 1084.56 606.95C1082.86 606.95 1081.71 607.75 1081.11 609.35C1080.51 610.9 1080.21 612.85 1080.21 615.2V619.1H1065.06V615.65C1065.06 611.15 1065.94 607.275 1067.69 604.025C1069.49 600.725 1071.91 598.2 1074.96 596.45C1078.06 594.65 1081.56 593.75 1085.46 593.75C1089.21 593.75 1092.46 594.625 1095.21 596.375C1097.96 598.075 1100.09 600.45 1101.59 603.5C1103.14 606.5 1103.91 609.95 1103.91 613.85V662.75C1103.91 666.4 1104.01 669.25 1104.21 671.3C1104.41 673.3 1104.66 675.2 1104.96 677H1090.11C1089.46 676.2 1089.06 675.025 1088.91 673.475C1088.81 671.925 1088.76 670.9 1088.76 670.4H1087.71C1086.46 672.7 1084.86 674.575 1082.91 676.025C1081.01 677.475 1078.81 678.2 1076.31 678.2ZM1082.46 663.35C1084.21 663.35 1085.69 662.75 1086.89 661.55C1088.14 660.35 1088.76 659.05 1088.76 657.65V638.15C1085.11 639.7 1082.44 642.05 1080.74 645.2C1079.09 648.3 1078.26 651.8 1078.26 655.7C1078.26 657.4 1078.59 659.1 1079.24 660.8C1079.89 662.5 1080.96 663.35 1082.46 663.35Z"
        fill="black" />
    <path
        d="M76.5 552.6C63.15 552.6 52.05 550.425 43.2 546.075C34.35 541.575 27.375 535.125 22.275 526.725C17.175 518.325 13.5 508.2 11.25 496.35C9.15001 484.5 8.10001 471.15 8.10001 456.3L55.8 451.8C55.8 459 56.025 465.975 56.475 472.725C57.075 479.325 58.05 485.325 59.4 490.725C60.9 495.975 63 500.175 65.7 503.325C68.55 506.475 72.15 508.05 76.5 508.05C83.7 508.05 88.8 504.75 91.8 498.15C94.8 491.4 96.3 483.3 96.3 473.85C96.3 464.4 93.825 454.575 88.875 444.375C83.925 434.175 78 424.5 71.1 415.35C59.4 399.75 49.125 385.275 40.275 371.925C31.575 358.575 24.75 345.45 19.8 332.55C15 319.65 12.6 306.15 12.6 292.05C12.6 280.95 14.025 270.75 16.875 261.45C19.725 252 23.85 243.825 29.25 236.925C34.8 229.875 41.475 224.4 49.275 220.5C57.075 216.6 66 214.65 76.05 214.65C88.5 214.65 99 216.75 107.55 220.95C116.25 225.15 123.225 231.15 128.475 238.95C133.875 246.75 137.775 256.05 140.175 266.85C142.725 277.5 144 289.35 144 302.4L96.3 306.9C96.3 301.35 96 295.8 95.4 290.25C94.95 284.55 94.05 279.375 92.7 274.725C91.35 270.075 89.4 266.325 86.85 263.475C84.3 260.625 81 259.2 76.95 259.2C70.65 259.2 66.3 261.9 63.9 267.3C61.5 272.55 60.3 280.05 60.3 289.8C60.3 302.4 63.675 314.55 70.425 326.25C77.175 337.95 86.25 351.6 97.65 367.2C111.3 385.65 122.4 402.6 130.95 418.05C139.65 433.5 144 450.6 144 469.35C144 481.2 142.725 492.225 140.175 502.425C137.625 512.475 133.575 521.25 128.025 528.75C122.625 536.25 115.65 542.1 107.1 546.3C98.7 550.5 88.5 552.6 76.5 552.6ZM202.451 549V268.2H156.551V218.25H296.951V268.2H251.051V549H202.451ZM286.928 549L336.878 218.25H396.278L446.228 549H398.978L389.978 481.5H343.178L334.178 549H286.928ZM349.928 430.2H383.228L369.278 319.05L367.928 301.5H365.228L363.878 319.05L349.928 430.2ZM471.955 549V218.25H520.555C549.655 218.25 571.105 226.35 584.905 242.55C598.705 258.6 605.605 282.3 605.605 313.65C605.605 332.25 602.305 348.375 595.705 362.025C589.255 375.525 581.38 385.425 572.08 391.725L605.155 549H556.555L529.105 409.5H520.555V549H471.955ZM520.555 364.5C529.555 364.5 536.68 362.55 541.93 358.65C547.18 354.6 550.93 348.9 553.18 341.55C555.43 334.2 556.555 325.5 556.555 315.45C556.555 299.7 553.93 287.625 548.68 279.225C543.58 270.675 534.205 266.4 520.555 266.4V364.5ZM665.195 549V268.2H619.295V218.25H759.695V268.2H713.795V549H665.195Z"
        fill="#FACB0A" />
    <path
        d="M851.643 549V218.25H900.243V504H964.593V549H851.643ZM984.357 549V218.25H1032.96V549H984.357ZM1069.17 549V218.25H1114.62L1159.62 390.6L1163.67 405.9H1166.37V218.25H1210.92V549H1169.97L1120.47 376.65L1116.42 361.35H1113.72V549H1069.17ZM1246.71 549V218.25H1357.86V268.2H1295.31V357.3H1340.31V405.9H1295.31V499.05H1357.86V549H1246.71Z"
        fill="black" />
</svg>